<?xml version="1.0" encoding="UTF-8"?>
<svg width="54px" height="48px" viewBox="0 0 54 48" version="1.1" xmlns="http://www.w3.org/2000/svg" xmlns:xlink="http://www.w3.org/1999/xlink">
    <!-- Generator: Sketch 64 (93537) - https://sketch.com -->
    <title>logo</title>
    <desc>Created with Sketch.</desc>
    <defs>
        <polygon id="path-1" points="0 0.0487804878 53.8983321 0.0487804878 53.8983321 39.9212358 0 39.9212358"></polygon>
    </defs>
    <g id="Page-1" stroke="none" stroke-width="1" fill="none" fill-rule="evenodd">
        <g id="Desktop" transform="translate(-485.000000, -3698.000000)">
            <g id="design" transform="translate(0.000000, -1.000000)">
                <g id="footer" transform="translate(0.000000, 3693.000000)">
                    <g id="logo" transform="translate(485.000000, 6.000000)">
                        <g id="Group-3">
                            <mask id="mask-2" fill="white">
                                <use xlink:href="#path-1"></use>
                            </mask>
                            <g id="Clip-2"></g>
                            <path d="M26.9491179,0.0487154472 C12.0653679,0.0487154472 -9.64285714e-05,12.2561951 -9.64285714e-05,27.3144065 C-9.64285714e-05,31.8643252 1.10754643,36.1498537 3.05540357,39.9212358 L4.84383214,39.9212358 C2.76418929,36.1963577 1.57168929,31.8974959 1.57168929,27.3144065 C1.57168929,13.1342439 12.9335464,1.63863415 26.9491179,1.63863415 C40.9646893,1.63863415 52.3268679,13.1342439 52.3268679,27.3144065 C52.3268679,31.8974959 51.1340464,36.1963577 49.0544036,39.9212358 L50.8428321,39.9212358 C52.7906893,36.1498537 53.8983321,31.8643252 53.8983321,27.3144065 C53.8983321,12.2561951 41.8328679,0.0487154472 26.9491179,0.0487154472" id="Fill-1" fill="#FFFFFF" mask="url(#mask-2)"></path>
                        </g>
                        <path d="M6.30689515,40 C4.0677462,36.3740997 2.77131235,32.1052522 2.77131235,27.5374343 C2.77131235,14.4338503 13.4159363,3.77282245 26.5,3.77282245 C39.5837427,3.77282245 50.2283667,14.4338503 50.2283667,27.5374343 C50.2283667,32.1052522 48.9322538,36.3740997 46.6931048,40 L47.5928088,40 C49.7539598,36.3445241 51,32.0849993 51,27.5374343 C51,14.0075763 40.0090398,3 26.5,3 C12.9906392,3 2,14.0075763 2,27.5374343 C2,32.0849993 3.24571919,36.3445241 5.40687026,40 L6.30689515,40 Z" id="Fill-4" fill="#FFFFFF"></path>
                        <path d="M38.2732104,11.1651487 C38.2732104,11.1651487 38.9212878,10.1074777 38.6377942,9.82260819 C38.3543005,9.53773868 38.7903208,8.52048615 38.4913815,8.39858399 C38.1921203,8.27635848 38.111352,9.0087415 37.8684034,9.09022517 C37.6254548,9.1713855 38.0708069,7.17794563 37.8684034,7.13720379 C37.6656781,7.09646196 37.2206478,8.88683933 36.8158408,8.8460975 C36.410712,8.80535566 36.9371542,7.01530163 36.4918021,6.89339947 C36.0464501,6.77117396 36.2893986,8.23561664 35.9248149,8.43932583 C35.5605529,8.64271166 35.1959692,6.60852996 34.7103939,6.48630445 C34.2244967,6.36440229 35.3172826,8.27635848 34.9533424,8.23561664 C34.5887587,8.19519816 33.9410031,6.73043212 33.6169644,6.68969029 C33.2929257,6.64894845 34.3863552,8.72419534 33.900458,8.52048615 C33.4145609,8.31710032 32.3619983,8.15445632 32.1595948,8.96832301 C31.9568695,9.78186635 32.6049469,11.1244069 33.9410031,10.921021 C33.9410031,10.921021 31.1067104,12.8333006 30.4184098,13.4434581 C29.7301092,14.0539389 27.8270657,16.4541505 27.0174517,17.1457916 C26.2078377,17.8374328 24.2642492,19.1392315 23.8594421,18.529074 C23.4543133,17.9189165 25.9648891,14.6540727 26.0456574,12.5839993 C26.1267476,10.5142494 26.4102412,7.86958681 24.9525498,7.09646196 C24.9525498,7.09646196 24.0650635,4.02562686 20.4195479,5.31707841 C20.4195479,5.31707841 17.5431012,5.99804911 13.8586495,9.09022517 C13.8586495,9.09022517 15.761693,8.43932583 16.0857316,8.52048615 C16.0857316,8.52048615 14.1015981,9.1713855 12.8057651,11.5719204 C12.8057651,11.5719204 9.36426195,14.7859986 9,16.5353108 C9,16.5353108 11.145992,14.3384851 11.7532025,14.0539389 C11.7532025,14.0539389 10.7003182,16.9831476 10.6195498,18.2445278 C10.6195498,18.2445278 11.8748377,16.2915065 12.4820482,15.843993 C12.4820482,15.843993 11.3889406,18.3256882 11.3483955,18.9765875 C11.3078505,19.6274869 12.6844517,17.634047 13.7373361,16.8609221 C13.7373361,16.8609221 12.3607348,20.3601932 12.6442285,21.1737366 C12.6075448,20.9321957 13.9397396,19.99384 14.6280403,18.6509762 C14.6280403,18.6509762 13.8181044,21.051511 14.020508,21.6212501 C14.2232332,22.1909891 14.870667,21.7431522 15.3971092,21.051511 C15.9235514,20.3601932 15.4376543,21.8479169 15.3971092,22.2433714 C15.3565642,22.6381792 15.8424613,21.4990246 16.207045,21.1329947 C16.5716288,20.7666415 15.7211479,22.6789211 15.9640965,23.8180758 C15.9640965,23.8180758 16.3689035,22.3536331 16.8142556,22.0280217 C16.8142556,22.0280217 16.2881352,23.9810431 16.8950239,25.6488716 C16.8950239,25.6488716 16.8950239,24.6316191 17.3001527,23.7369154 C17.3001527,23.7369154 17.4620111,25.3235836 17.7049597,26.1778688 C17.7049597,26.1778688 17.8265949,25.3640021 18.0695434,24.9979723 C18.0695434,24.9979723 18.3794235,26.4219965 18.6696747,26.7472845 C18.6696747,26.7472845 18.3935821,27.3170235 18.4341272,27.7237952 C18.4743504,28.1308902 19.1626511,27.4796675 19.1626511,27.4796675 C19.1626511,27.4796675 18.7031404,28.4565015 18.6696747,29.0255938 C18.6365307,29.5953329 19.2839645,29.0255938 19.2839645,29.0255938 C19.2839645,29.0255938 18.8386124,29.7987187 19.2434194,30.2465556 C19.6485482,30.6940691 21.5918149,29.1885612 21.5918149,29.1885612 C21.5918149,29.1885612 21.63236,29.9209442 22.0777121,29.6768165 L23.2519098,28.7410477 C23.2519098,28.7410477 23.9402105,29.1070775 24.4261076,30.0024279 C24.9123265,30.8971316 24.5882878,31.2227429 25.0738632,31.3853869 C25.5597603,31.5483542 26.0862025,33.7047615 26.0862025,33.7047615 C26.0862025,33.7047615 25.3168117,34.4778863 24.5477428,33.7047615 C24.5477428,33.7047615 25.1144082,34.8435928 26.2480609,34.6812721 C26.2480609,34.6812721 26.5315546,35.1692041 26.1267476,35.2506878 C25.7216188,35.3318481 24.8717815,35.8201035 24.9123265,36.0642311 C24.9123265,36.0642311 25.2357216,35.8608453 25.6003054,36.0642311 C25.9648891,36.2679403 26.2480609,36.1864567 26.5315546,36.0642311 C26.8150482,35.942329 26.8961383,36.4713262 27.3817136,36.5528098 C27.8676108,36.6339702 27.9795924,37 27.9795924,37 C27.9795924,37 28.1317972,36.6339702 27.9795924,36.3898425 C27.9795924,36.3898425 29.8111993,36.3898425 30.3376415,36.512068 C30.8640837,36.6339702 31.1067104,36.3898425 31.1067104,36.3898425 C31.1067104,36.3898425 31.6736977,36.4305843 31.7950111,36.674712 C31.7950111,36.674712 31.8355561,36.0642311 31.1472555,35.942329 C31.1472555,35.942329 30.58059,35.6982013 29.9730577,35.7389432 C29.3655254,35.779685 28.3747458,35.6167176 27.9795924,35.1692041 C27.5841172,34.722014 26.8961383,31.9958677 27.09822,31.4261287 C27.09822,31.4261287 27.6652073,31.5483542 27.7868424,30.9378734 C27.9081558,30.3277159 28.6775466,29.391947 28.6775466,29.391947 C28.6775466,29.391947 30.6613584,27.194798 31.1472555,27.1543795 C31.6331526,27.1136377 33.3334708,26.86951 34.0623165,25.0387141 C34.791484,23.2079183 36.7347507,22.4351168 36.9371542,19.261457 C37.1395577,16.0881206 36.8563859,15.2335121 36.8563859,15.2335121 C36.8563859,15.2335121 38.111352,14.4196454 37.9086267,13.6064254 C37.9086267,13.6064254 38.3948456,12.9959446 38.151897,12.5891729 C38.151897,12.5891729 38.6783392,12.4262056 38.9615111,12.7518169 C38.9615111,12.7518169 39.2450047,11.8975317 38.2732104,11.1651487" id="Fill-6" fill="#FFFFFF"></path>
                        <path d="M41,35.8760282 L38.3314271,34 L38.3314271,35.4295755 C34.6443025,35.4691229 24.2208553,35.408875 22.8701041,35.4280307 C20.93986,35.4549106 19.0099388,35.4879697 17.0800175,35.5213378 L15.466154,34.050979 L13,34.050979 L14.380775,35.5667555 C14.2542228,35.5689182 14.1283163,35.571081 14.0017641,35.5732437 C13.7851403,35.5763333 13.7848174,35.9829297 14.0017641,35.9860194 C14.1325132,35.9881821 14.2639079,35.9906538 14.394657,35.9928166 L13,37.6420654 L15.7341089,37.6420654 L17.136514,36.0388522 C19.0477107,36.0719113 20.9589074,36.1043525 22.8701041,36.1312323 C23.340478,36.1380296 25.0024443,36.1210365 27.0953984,36.1021897 L27.0953984,38.5964546 C27.0953984,39.1340516 27.9683504,39.1349785 27.9683504,38.5964546 L27.9683504,36.0944657 C31.7055148,36.0623334 36.3995688,36.031746 38.3314271,36.1074421 L38.3314271,37.559881 L41,35.8760282 Z" id="Fill-8" fill="#FFFFFF"></path>
                        <path d="M18.8043452,32.4525226 C17.7850818,32.133759 16.8261568,31.6717638 15.9330849,31.124939 C16.25716,30.607152 17.0558317,29.0701044 16.3145787,27.4547526 C15.4545956,25.5803441 14.5819608,28.6932651 15.6064145,30.9206954 C14.889816,30.4567426 14.2192821,29.9392818 13.5977326,29.3983298 C13.9341349,28.8488949 14.6815515,27.3470842 13.9565185,25.7666431 C13.1267045,23.958467 12.2852121,26.7904714 13.1458441,28.992779 C12.3270596,28.2368165 11.6046219,27.4524687 10.9895604,26.7147773 C11.3136355,26.196664 12.1119828,24.6599427 11.3710542,23.0449171 C10.5610286,21.2794821 9.74029775,23.9382384 10.5029611,26.1144445 C9.95634785,25.4188416 9.51775967,24.7927337 9.19692853,24.306921 C9.18070856,23.5398654 8.96855126,22.1411554 7.74167222,21.2458765 C6.05317264,20.0138894 6.05025304,23.7620537 8.80862229,24.7450986 C9.05224634,25.1134549 9.35426231,25.5483699 9.71272379,26.026026 C8.98606884,25.7098725 7.77995136,25.3973079 6.55501872,26.0146066 C4.69101899,26.9536053 7.94085353,27.7408895 10.1243868,26.5617577 C10.5117198,27.0521382 10.950308,27.5725353 11.4378805,28.099784 C10.6538068,28.021806 9.37177988,28.0877121 8.37879291,29.0900068 C6.92872698,30.5549492 10.1435264,30.2929561 11.8628439,28.5467709 C12.4068619,29.1066464 13.0053791,29.6652169 13.6538537,30.1960546 C12.8937856,30.1591863 11.4845941,30.2740326 10.5100979,31.450228 C9.16935457,33.0685162 12.4976938,32.4694886 14.0204252,30.4883905 C15.3673321,31.5370152 16.9147179,32.4486074 18.6389014,32.9876018 C18.6664754,32.9960848 18.6943737,33 18.7216233,33 C18.8406779,33 18.950325,32.9230008 18.9873065,32.8029343 C19.0330468,32.6554612 18.9512982,32.4985264 18.8043452,32.4525226" id="Fill-10" fill="#FFFFFF"></path>
                        <path d="M46.4449544,26.0144758 C45.2203607,25.3971655 44.0139331,25.7097359 43.2876112,26.0258954 C43.645744,25.5482304 43.9480808,25.1133073 44.1913775,24.744944 C46.9500385,23.762207 46.9467945,20.0136462 45.2583149,21.2459827 C44.0317749,22.140952 43.8192957,23.5396882 43.8030759,24.3070844 C43.4822486,24.7929063 43.04399,25.4190259 42.4967345,26.1146419 C43.2600375,23.9383949 42.438992,21.2792626 41.628976,23.0447307 C40.8877319,24.6601128 41.686394,26.1968629 42.0104653,26.7146596 C41.3957355,27.4523649 40.6729819,28.2370536 39.8545316,28.9927039 C40.714829,26.7906814 39.8730222,23.9582976 39.0435424,25.7665076 C38.3181936,27.3469784 39.0659257,28.8491434 39.402324,29.3982624 C38.7807819,29.9392245 38.1105804,30.4566949 37.3939903,30.9206564 C38.4181075,28.6931845 37.5454831,25.5802052 36.6851857,27.4546488 C35.9439416,29.0700309 36.7429282,30.6071072 37.0669995,31.1249039 C36.1739381,31.6720652 35.2150245,32.1340691 34.1957732,32.4525124 C34.048822,32.498517 33.9667499,32.6554548 34.0128141,32.8032568 C34.0494708,32.9233256 34.1594409,33 34.2784941,33 C34.3057434,33 34.3336414,32.9960847 34.361215,32.9876016 C36.0850537,32.4489234 37.6327455,31.5373141 38.9796364,30.4886698 C40.5026742,32.4694786 43.8306495,33.0685175 42.4899222,31.450199 C41.5157619,30.2743078 40.1062627,30.1591331 39.3462036,30.1960021 C39.9946705,29.6651545 40.5931806,29.1068998 41.1375165,28.5470138 C42.8564893,30.2929054 46.0715749,30.5549034 44.6212018,29.0902598 C43.6282266,28.0876201 42.3462149,28.0217128 41.5621505,28.1000185 C42.0497172,27.5724336 42.4886246,27.052353 42.8756286,26.5619634 C45.0594604,27.740791 48.308932,26.9538183 46.4449544,26.0144758" id="Fill-12" fill="#FFFFFF"></path>
                        <path d="M50.3428308,40 C50.5724712,39.6713806 50.7940934,39.3389262 51,39 L2,39 C2.20526516,39.3389262 2.42720811,39.6713806 2.65652777,40 L50.3428308,40 Z" id="Fill-14" fill="#FFFFFF"></path>
                        <path d="M34.4505051,43 L34,43 L34,44 L34.3134199,44 C34.7468975,44 35,43.8130502 35,43.4826515 C35,43.2019679 34.7910534,43 34.4505051,43" id="Fill-16" fill="#FFFFFF"></path>
                        <polygon id="Fill-18" fill="#FFFFFF" points="30 44 31 44 30.512628 43"></polygon>
                        <path d="M41.3855112,46.254533 L39.569541,46.254533 L39.569541,45.7026324 L40.044832,45.5077435 L40.044832,43.0656598 L39.8805299,43.494347 L39.1916142,45.020692 L38.5337654,45.0531166 L37.8323589,43.5141431 L37.7292297,43.1762447 L37.7292297,45.5077435 L38.1984354,45.7026324 L38.1984354,46.254533 L36.4612533,46.254533 L36.4612533,45.7026324 L36.9186088,45.5077435 L36.9186088,42.4553949 L36.4612533,42.260506 L36.4612533,41.7086053 L38.0338131,41.6761807 L38.9478834,43.8387303 L39.9048709,41.7086053 L41.3672554,41.6761807 L41.3672554,42.260506 L40.9281557,42.4553949 L40.9281557,45.5077435 L41.3855112,45.7026324 L41.3855112,46.254533 Z M36.186776,46.254533 L35.0594012,46.254533 L34.5475986,45.0531166 C34.3400591,44.5595802 34.2856121,44.4554802 33.9621324,44.4554802 L33.7488279,44.4554802 L33.7488279,45.5077435 L34.1879276,45.7026324 L34.1879276,46.254533 L32.3476163,46.254533 L32.3476163,45.7026324 L32.8043312,45.5077435 L32.8043312,42.4553949 L32.3476163,42.260506 L32.3476163,41.7086053 L33.7488279,41.6761807 L34.2125889,41.6761807 C35.2121732,41.6761807 35.7969989,42.1178378 35.7969989,43.0011519 C35.7969989,43.6114169 35.5222013,44.0076795 35.1080832,44.2281667 C35.1750211,44.312812 35.2666203,44.4363667 35.3639845,44.6507104 L35.7726579,45.5401681 L36.186776,45.7026324 L36.186776,46.254533 Z M32.1038856,46.254533 L30.1658898,46.254533 L30.1658898,45.7026324 L30.6226047,45.5271983 L30.4765585,45.0531166 L29.1237087,45.0531166 L28.9709366,45.5210547 L29.4465478,45.7026324 L29.4465478,46.254533 L27.6062365,46.254533 L27.6062365,45.7026324 L28.0507809,45.5210547 L29.3914602,41.6956355 L30.3667035,41.6761807 L31.6772767,45.5210547 L32.1038856,45.7026324 L32.1038856,46.254533 Z M27.3439297,44.3063271 L26.0823589,44.3063271 L26.0823589,45.5077435 L26.6434841,45.7026324 L26.6434841,46.254533 L24.6811473,46.254533 L24.6811473,45.7026324 L25.1378622,45.5077435 L25.1378622,42.4553949 L24.6811473,42.260506 L24.6811473,41.7086053 L26.0823589,41.6761807 L27.7887944,41.6761807 L27.7887944,42.9100218 L27.2219042,42.9100218 L27.0700929,42.4553949 L26.0823589,42.4553949 L26.0823589,43.5919621 L27.3439297,43.5919621 L27.3439297,44.3063271 Z M22.6393818,46.254533 L19.4577507,46.254533 L19.4577507,45.7026324 L19.9151062,45.5077435 L19.9151062,42.4553949 L19.4577507,42.260506 L19.4577507,41.7086053 L20.8596029,41.6761807 L22.5660384,41.6761807 L22.5660384,42.9294765 L22.017404,42.9294765 L21.8649522,42.4553949 L20.8596029,42.4553949 L20.8596029,43.5271129 L22.0907474,43.5271129 L22.0907474,44.2414779 L20.8596029,44.2414779 L20.8596029,45.4753189 L21.9504661,45.4753189 L22.0907474,44.9425317 L22.6393818,44.9425317 L22.6393818,46.254533 Z M18.9699689,42.260506 L18.5126135,42.4553949 L18.5126135,45.5077435 L18.9699689,45.7026324 L18.9699689,46.254533 L17.0806553,46.254533 L17.0806553,45.7026324 L17.5681168,45.5077435 L17.5681168,44.2739025 L15.9347044,44.2739025 L15.9347044,45.5077435 L16.4228064,45.7026324 L16.4228064,46.254533 L14.5334928,46.254533 L14.5334928,45.7026324 L14.9902077,45.5077435 L14.9902077,42.4553949 L14.5334928,42.260506 L14.5334928,41.7086053 L16.4228064,41.6761807 L16.4228064,42.260506 L15.9347044,42.4553949 L15.9347044,43.494347 L17.5681168,43.494347 L17.5681168,42.4553949 L17.0806553,42.260506 L17.0806553,41.7086053 L18.9699689,41.6761807 L18.9699689,42.260506 Z M14.2590155,43.072486 L13.6921253,43.072486 L13.540314,42.4553949 L12.960933,42.4553949 L12.960933,45.5077435 L13.540314,45.7026324 L13.540314,46.254533 L11.4376959,46.254533 L11.4376959,45.7026324 L12.0164363,45.5077435 L12.0164363,42.4553949 L11.4376959,42.4553949 L11.2852441,43.072486 L10.7247595,43.072486 L10.7247595,41.6761807 L14.2590155,41.6761807 L14.2590155,43.072486 Z M3,40 C4.58697222,43.0520073 6.68222395,45.7609966 9.16404994,48 L43.8362703,48 C46.3177761,45.7609966 48.4130278,43.0520073 50,40 L3,40 Z" id="Fill-20" fill="#FFFFFF"></path>
                    </g>
                </g>
            </g>
        </g>
    </g>
</svg>